<?xml version="1.0" encoding="UTF-8" standalone="no"?>
<svg
   xmlns:dc="http://purl.org/dc/elements/1.1/"
   xmlns:cc="http://creativecommons.org/ns#"
   xmlns:rdf="http://www.w3.org/1999/02/22-rdf-syntax-ns#"
   xmlns:svg="http://www.w3.org/2000/svg"
   xmlns="http://www.w3.org/2000/svg"
   version="1.1"
   id="svg5204"
   viewBox="0 0 70.866144 70.866144"
   height="20mm"
   width="20mm">
  <defs
     id="defs5206" />
  <metadata
     id="metadata5209">
    <rdf:RDF>
      <cc:Work
         rdf:about="">
        <dc:format>image/svg+xml</dc:format>
        <dc:type
           rdf:resource="http://purl.org/dc/dcmitype/StillImage" />
        <dc:title></dc:title>
      </cc:Work>
    </rdf:RDF>
  </metadata>
  <g
     transform="translate(0,-981.49605)"
     id="layer1">
    <g
       id="g7420"
       transform="translate(-534.91132,673.40666)">
      <g
         id="g279">
        <path
           d="m 586.1,375.3 -16,0 -16,0 0,-18 0,-20 c 0,-1.1 0.4,-2.1 1.2,-2.8 0.7,-0.7 1.7,-1.2 2.8,-1.2 l 12,0 12,0 c 1.1,0 2.1,0.4 2.8,1.2 0.7,0.7 1.2,1.7 1.2,2.8 l 0,20 0,18 z"
           id="path281"
           style="fill:#cd2027" />
        <polygon
           points="582.1,333.3 582.1,355.3 582.1,375.3 570.1,375.3 558.1,375.3 558.1,355.3 558.1,333.3 570.1,333.3 "
           id="polygon283"
           style="fill:#ff8080" />
        <polygon
           points="562.1,333.3 562.1,355.3 562.1,375.3 560.1,375.3 558.1,375.3 558.1,355.3 558.1,333.3 560.1,333.3 "
           id="polygon285"
           style="fill:#ffc0c0" />
        <path
           d="m 558.1,333.3 0,4.4 0,4.4 c 0.4,0 0.9,0.1 1.2,0.4 0.4,0.3 0.6,0.7 0.8,1.2 0.3,1 1.1,1.6 2,1.6 0.9,0 1.7,-0.5 2,-1.6 0.3,-1.1 1.1,-1.6 2,-1.6 0.9,0 1.7,0.5 2,1.6 0.3,1.1 1.1,1.6 2,1.6 0.9,0 1.7,-0.5 2,-1.6 0.3,-1.1 1.1,-1.6 2,-1.6 0.9,0 1.7,0.5 2,1.6 0.3,1.1 1.1,1.6 2,1.6 0.9,0 1.7,-0.5 2,-1.6 0.1,-0.5 0.4,-0.9 0.8,-1.2 0.4,-0.3 0.8,-0.4 1.2,-0.4 l 0,-4.4 0,-4.4 -12,0 -12,0 z"
           id="path287"
           style="fill:#ffe094" />
        <path
           d="m 558.1,333.3 0,4.4 0,4.4 c 0.4,0 0.9,0.1 1.2,0.4 0.4,0.3 0.6,0.7 0.8,1.2 0.2,0.5 0.4,0.9 0.8,1.2 0.4,0.3 0.8,0.4 1.2,0.4 l 0,-6 0,-6 -2,0 -2,0 z"
           id="path289"
           style="fill:#fff9c0" />
        <path
           d="m 576.1,323.3 c 0,1.7 -0.7,3.2 -1.8,4.2 -1.1,1.1 -2.6,1.8 -4.2,1.8 -1.6,0 -3.2,-0.7 -4.2,-1.8 -1.1,-1.1 -1.8,-2.6 -1.8,-4.2 0,-1.6 1.5,-4.2 3,-6.2 1.5,-2 3,-3.8 3,-3.8 0,0 1.5,1.7 3,3.8 1.5,2.1 3,4.5 3,6.2 z"
           id="path291"
           style="fill:#ffe094" />
        <path
           d="m 558.1,333.3 c -1.1,0 -2.1,0.4 -2.8,1.2 -0.7,0.7 -1.2,1.7 -1.2,2.8 l 0,3.6 0,3.6 c 0,0.2 0.1,0.4 0.2,0.6 0.1,0.2 0.3,0.3 0.6,0.3 0.3,0 0.4,0 0.6,-0.1 0.2,-0.1 0.3,-0.3 0.4,-0.5 0.1,-0.3 0.1,-0.6 0.2,-0.7 0.1,-0.1 0.1,-0.3 0.1,-0.3 0.1,-0.5 0.4,-0.9 0.8,-1.2 0.4,-0.3 0.8,-0.4 1.2,-0.4 l 0,-4.4 0,-4.5 z"
           id="path293"
           style="fill:#ffd140" />
        <path
           d="m 582.1,333.3 0,4.4 0,4.4 c 0.4,0 0.9,0.1 1.2,0.4 0.4,0.3 0.6,0.7 0.8,1.2 0,0 0,0.2 0.1,0.3 0,0.2 0.1,0.4 0.2,0.7 0.1,0.2 0.2,0.4 0.4,0.5 0.2,0.1 0.4,0.2 0.6,0.1 0.2,0 0.4,-0.1 0.6,-0.3 0.2,-0.2 0.2,-0.4 0.2,-0.6 l 0,-3.6 0,-3.6 c 0,-1.1 -0.4,-2.1 -1.2,-2.8 -0.8,-0.7 -1.8,-1.1 -2.9,-1.1 z"
           id="path295"
           style="fill:#ffd140" />
      </g>
      <g
         id="g823">
        <polyline
           stroke-miterlimit="10"
           points="   570.1,329.3 570.1,331.3 570.1,333.3  "
           id="polyline825"
           style="fill:none;stroke:#675252;stroke-width:2;stroke-linecap:round;stroke-linejoin:round;stroke-miterlimit:10" />
        <path
           stroke-miterlimit="10"
           d="m 586.1,375.3 -16,0 -16,0 0,-18 0,-20 c 0,-1.1 0.4,-2.1 1.2,-2.8 0.7,-0.7 1.7,-1.2 2.8,-1.2 l 12,0 12,0 c 1.1,0 2.1,0.4 2.8,1.2 0.7,0.7 1.2,1.7 1.2,2.8 l 0,20 0,18 z"
           id="path827"
           style="fill:none;stroke:#675252;stroke-width:2;stroke-linecap:round;stroke-linejoin:round;stroke-miterlimit:10" />
        <path
           stroke-miterlimit="10"
           d="m 576.1,323.3 c 0,1.7 -0.7,3.2 -1.8,4.2 -1.1,1.1 -2.6,1.8 -4.2,1.8 -1.6,0 -3.2,-0.7 -4.2,-1.8 -1.1,-1.1 -1.8,-2.6 -1.8,-4.2 0,-1.6 1.5,-4.2 3,-6.2 1.5,-2 3,-3.8 3,-3.8 0,0 1.5,1.7 3,3.8 1.5,2.1 3,4.5 3,6.2 z"
           id="path829"
           style="fill:none;stroke:#675252;stroke-width:2;stroke-linecap:round;stroke-linejoin:round;stroke-miterlimit:10" />
      </g>
    </g>
  </g>
</svg>
