<?xml version="1.0" encoding="UTF-8" standalone="no"?>
<svg
   xmlns:dc="http://purl.org/dc/elements/1.1/"
   xmlns:cc="http://creativecommons.org/ns#"
   xmlns:rdf="http://www.w3.org/1999/02/22-rdf-syntax-ns#"
   xmlns:svg="http://www.w3.org/2000/svg"
   xmlns="http://www.w3.org/2000/svg"
   version="1.1"
   id="svg4244"
   viewBox="0 0 32 32.000001"
   height="32"
   width="32">
  <defs
     id="defs4246" />
  <metadata
     id="metadata4249">
    <rdf:RDF>
      <cc:Work
         rdf:about="">
        <dc:format>image/svg+xml</dc:format>
        <dc:type
           rdf:resource="http://purl.org/dc/dcmitype/StillImage" />
        <dc:title />
      </cc:Work>
    </rdf:RDF>
  </metadata>
  <g
     transform="translate(0,-1020.3622)"
     id="layer1">
    <g
       transform="translate(-4.2590071,-3.0333347)"
       id="g4783">
      <g
         id="g7371">
        <path
           style="color:#000000;font-style:normal;font-variant:normal;font-weight:normal;font-stretch:normal;font-size:medium;line-height:normal;font-family:sans-serif;text-indent:0;text-align:start;text-decoration:none;text-decoration-line:none;text-decoration-style:solid;text-decoration-color:#000000;letter-spacing:normal;word-spacing:normal;text-transform:none;direction:ltr;block-progression:tb;writing-mode:lr-tb;baseline-shift:baseline;text-anchor:start;white-space:normal;clip-rule:nonzero;display:inline;overflow:visible;visibility:visible;opacity:1;isolation:auto;mix-blend-mode:normal;color-interpolation:sRGB;color-interpolation-filters:linearRGB;solid-color:#000000;solid-opacity:1;fill:#3c3b41;fill-opacity:1;fill-rule:evenodd;stroke:none;stroke-width:1px;stroke-linecap:round;stroke-linejoin:round;stroke-miterlimit:4;stroke-dasharray:none;stroke-dashoffset:0;stroke-opacity:1;color-rendering:auto;image-rendering:auto;shape-rendering:auto;text-rendering:auto;enable-background:accumulate"
           d="m 20.751953,1036.1465 a 0.50005,0.50005 0 0 0 -0.492187,0.5058 l 0,4 a 0.50005,0.50005 0 1 0 1,0 l 0,-4 a 0.50005,0.50005 0 0 0 -0.507813,-0.5058 z"
           id="path7188" />
        <path
           style="fill:#e6001f;fill-opacity:1;stroke:none;stroke-width:1;stroke-linecap:round;stroke-linejoin:round"
           d="m 25.259007,1038.1455 c -0.277,0 -0.5,0.223 -0.5,0.5001 0,0.2769 -0.223,0.4999 -0.5,0.4999 l -7.5,0 c -0.277,0 -0.5,-0.223 -0.5,-0.4999 l -0.5,0 0,15.7499 c 0,0.5541 0.44599,1 1,1 l 8,0 c 0.55401,0 1,-0.4459 1,-1 l 0,-11.75 0,-3.9999 c 0,-0.2771 -0.223,-0.5001 -0.5,-0.5001 z"
           id="path7190" />
        <path
           style="fill:#990012;fill-opacity:1;stroke:none;stroke-width:1;stroke-linecap:round;stroke-linejoin:round"
           d="m 15.759007,1037.6455 c 0.277,0 0.5,0.223 0.5,0.5 l 0,4 c 0,0.277 -0.223,0.5 -0.5,0.5 -0.277,0 -0.5,-0.223 -0.5,-0.5 l 0,-4 c 0,-0.277 0.223,-0.5 0.5,-0.5 z"
           id="rect7192" />
        <path
           id="path7194"
           d="m 16.259007,1038.6456 0,3 c 0,-0.2771 0.223,-0.5001 0.5,-0.5001 0.277,0 0.5,0.223 0.5,0.5001 l 0,-2.5001 -0.5,0 c -0.277,0 -0.5,-0.223 -0.5,-0.4999 z"
           style="fill:#990012;fill-opacity:1;stroke:none;stroke-width:1;stroke-linecap:round;stroke-linejoin:round" />
        <path
           id="path7196"
           d="m 18.259007,1039.1455 0,3.5 c 0,0.2771 -0.223,0.5001 -0.5,0.5001 -0.277,0 -0.5,-0.223 -0.5,-0.5001 l 0,-3.5 z"
           style="fill:#990012;fill-opacity:1;stroke:none;stroke-width:1;stroke-linecap:round;stroke-linejoin:round" />
        <path
           style="fill:#990012;fill-opacity:1;stroke:none;stroke-width:1;stroke-linecap:round;stroke-linejoin:round"
           d="m 17.759007,1044.1455 c 0.277,0 0.5,0.223 0.5,0.5 l 0,1 c 0,0.277 -0.223,0.5 -0.5,0.5 -0.277,0 -0.5,-0.223 -0.5,-0.5 l 0,-1 c 0,-0.277 0.223,-0.5 0.5,-0.5 z"
           id="rect7198" />
        <path
           id="path7200"
           d="m 18.259007,1039.1455 0,1.0001 c 0,-0.2771 0.223,-0.5001 0.5,-0.5001 0.277,0 0.5,0.223 0.5,0.5001 l 0,-1.0001 -1,0 z"
           style="fill:#990012;fill-opacity:1;stroke:none;stroke-width:1;stroke-linecap:round;stroke-linejoin:round" />
        <path
           style="fill:#990012;fill-opacity:1;stroke:none;stroke-width:1;stroke-linecap:round;stroke-linejoin:round"
           d="m 20.259007,1039.1455 0,1.5 c 0,0.2771 -0.223,0.5 -0.5,0.5 -0.277,0 -0.5,-0.2229 -0.5,-0.5 l 0,-1.5 z"
           id="path7202" />
        <path
           style="fill:#990012;fill-opacity:1;stroke:none;stroke-width:1;stroke-linecap:round;stroke-linejoin:round"
           d="m 19.759007,1042.1455 c 0.277,0 0.5,0.223 0.5,0.5 l 0,0 c 0,0.277 -0.223,0.5 -0.5,0.5 -0.277,0 -0.5,-0.223 -0.5,-0.5 l 0,0 c 0,-0.277 0.223,-0.5 0.5,-0.5 z"
           id="rect7204" />
        <path
           style="fill:#990012;fill-opacity:1;stroke:none;stroke-width:1;stroke-linecap:round;stroke-linejoin:round"
           d="m 15.759007,1043.6455 c 0.277,0 0.5,0.223 0.5,0.5 l 0,0.5 c 0,0.277 -0.223,0.5 -0.5,0.5 -0.277,0 -0.5,-0.223 -0.5,-0.5 l 0,-0.5 c 0,-0.277 0.223,-0.5 0.5,-0.5 z"
           id="rect7206" />
        <path
           id="path7210"
           d="m 23.81394,1033.951 c 0,2.7493 -2.1728,2.7493 -3.05493,4.2772 -0.9165,-1.5279 -3.05492,-1.5279 -3.05492,-4.2772 0,-1.6594 2.13842,-4.5845 3.05492,-10.5555 0.61138,5.971 3.05493,8.8996 3.05493,10.5555 z"
           style="fill:#ffa920;fill-opacity:1;stroke:none;stroke-width:0.5;stroke-opacity:1" />
        <path
           id="path7212"
           d="m 20.69478,1027.8374 c -0.54061,3.6681 -2.07398,4.2793 -2.07398,6.1324 0,1.8138 1.22171,1.8138 2.13844,2.7305 0.91673,-0.9167 2.13844,-0.9167 2.13844,-2.7245 0,-2.1647 -1.52729,-2.4703 -2.2029,-6.1384 z"
           style="fill:#ff9a00;fill-opacity:1;stroke:none;stroke-width:0.5;stroke-opacity:1" />
        <path
           id="path7214"
           d="m 20.75327,1030.9308 c -0.29961,1.797 -1.21335,2.1026 -1.21335,3.0719 -0.005,0.647 0.30259,0.8642 1.21932,1.7809 0.91673,-0.9167 1.2398,-1.1476 1.2223,-1.7833 l -6.1e-4,-0.012 0,-0.012 c 2e-5,-0.9424 -0.91612,-1.248 -1.22766,-3.045 z"
           style="fill:#ff643e;fill-opacity:1;stroke:none;stroke-width:0.5;stroke-opacity:1" />
        <path
           style="fill:#ff9a00;fill-opacity:1;stroke:none;stroke-width:0.5;stroke-opacity:1"
           d="m 22.74143,1030.8278 c -0.14744,2.4948 -1.82582,4.637 -4.21289,5.377 0.70336,0.7351 1.68256,1.11 2.23047,2.0234 0.88213,-1.5279 3.05469,-1.528 3.05469,-4.2773 0,-0.7247 -0.49468,-1.7626 -1.07227,-3.1231 z"
           id="path7216" />
        <path
           style="fill:#ff8901;fill-opacity:1;stroke:none;stroke-width:0.5;stroke-opacity:1"
           d="m 22.48362,1032.2731 a 5.9999914,5.9999914 0 0 1 -2.95313,3.5235 c 0.38773,0.2754 0.83101,0.5068 1.22852,0.9043 0.91673,-0.9167 2.13867,-0.9168 2.13867,-2.7246 0,-0.7053 -0.17207,-1.212 -0.41406,-1.7032 z"
           id="path7218" />
        <path
           style="fill:#ff4e18;fill-opacity:1;stroke:none;stroke-width:0.5;stroke-opacity:1"
           d="m 21.90549,1033.5505 a 5.9999914,5.9999914 0 0 1 -1.61328,1.7676 c 0.13797,0.1374 0.28151,0.2795 0.4668,0.4648 0.91673,-0.9167 1.24016,-1.1475 1.22266,-1.7832 l 0,-0.012 0,-0.012 c 0,-0.157 -0.0324,-0.2943 -0.0762,-0.4258 z"
           id="path7220" />
      </g>
    </g>
  </g>
</svg>
