<?xml version="1.0" encoding="iso-8859-1"?>
<!-- Generator: Adobe Illustrator 18.0.0, SVG Export Plug-In . SVG Version: 6.00 Build 0)  -->
<!DOCTYPE svg PUBLIC "-//W3C//DTD SVG 1.1//EN" "http://www.w3.org/Graphics/SVG/1.1/DTD/svg11.dtd">
<svg version="1.1" id="Capa_1" xmlns="http://www.w3.org/2000/svg" xmlns:xlink="http://www.w3.org/1999/xlink" x="0px" y="0px"
	 viewBox="0 0 471.93 471.93" style="enable-background:new 0 0 471.93 471.93;" xml:space="preserve">
<g>
	<linearGradient id="SVGID_1_" gradientUnits="userSpaceOnUse" x1="358.6768" y1="440.8917" x2="374.2161" y2="413.9769">
		<stop  offset="0" style="stop-color:#000000"/>
		<stop  offset="0.216" style="stop-color:#3D3D3D;stop-opacity:0.784"/>
		<stop  offset="0.6041" style="stop-color:#A4A4A4;stop-opacity:0.3959"/>
		<stop  offset="0.8737" style="stop-color:#E6E6E6;stop-opacity:0.1263"/>
		<stop  offset="1" style="stop-color:#FFFFFF;stop-opacity:0"/>
	</linearGradient>
	<path style="fill:url(#SVGID_1_);" d="M373.9,421.2l4.59,16.61l-17.01,4.7l-6.06-21.94c-0.62-2.28-0.33-4.66,0.83-6.71
		c1.17-2.05,3.06-3.52,5.33-4.15c2.27-0.62,4.65-0.33,6.7,0.84c2.05,1.16,3.53,3.05,4.15,5.32L373.9,421.2z"/>
	<linearGradient id="SVGID_2_" gradientUnits="userSpaceOnUse" x1="333.9617" y1="447.7145" x2="349.5015" y2="420.7988">
		<stop  offset="0" style="stop-color:#000000"/>
		<stop  offset="0.216" style="stop-color:#3D3D3D;stop-opacity:0.784"/>
		<stop  offset="0.6041" style="stop-color:#A4A4A4;stop-opacity:0.3959"/>
		<stop  offset="0.8737" style="stop-color:#E6E6E6;stop-opacity:0.1263"/>
		<stop  offset="1" style="stop-color:#FFFFFF;stop-opacity:0"/>
	</linearGradient>
	<path style="fill:url(#SVGID_2_);" d="M347.71,422.69l6.06,21.94l-17.01,4.7l-6.06-21.94c-1.29-4.69,1.47-9.56,6.16-10.85
		C341.55,415.24,346.42,418,347.71,422.69z"/>
	<linearGradient id="SVGID_3_" gradientUnits="userSpaceOnUse" x1="309.2363" y1="454.5371" x2="324.7744" y2="427.6242">
		<stop  offset="0" style="stop-color:#000000"/>
		<stop  offset="0.216" style="stop-color:#3D3D3D;stop-opacity:0.784"/>
		<stop  offset="0.6041" style="stop-color:#A4A4A4;stop-opacity:0.3959"/>
		<stop  offset="0.8737" style="stop-color:#E6E6E6;stop-opacity:0.1263"/>
		<stop  offset="1" style="stop-color:#FFFFFF;stop-opacity:0"/>
	</linearGradient>
	<path style="fill:url(#SVGID_3_);" d="M322.99,429.52l6.05,21.94l-17.01,4.69l-6.05-21.94c-1.3-4.69,1.47-9.56,6.16-10.85
		C316.82,422.06,321.69,424.83,322.99,429.52z"/>
	<linearGradient id="SVGID_4_" gradientUnits="userSpaceOnUse" x1="284.5148" y1="461.3563" x2="300.0511" y2="434.4467">
		<stop  offset="0" style="stop-color:#000000"/>
		<stop  offset="0.216" style="stop-color:#3D3D3D;stop-opacity:0.784"/>
		<stop  offset="0.6041" style="stop-color:#A4A4A4;stop-opacity:0.3959"/>
		<stop  offset="0.8737" style="stop-color:#E6E6E6;stop-opacity:0.1263"/>
		<stop  offset="1" style="stop-color:#FFFFFF;stop-opacity:0"/>
	</linearGradient>
	<path style="fill:url(#SVGID_4_);" d="M298.27,436.34l6.05,21.94l-17.01,4.69l-6.05-21.94c-0.63-2.27-0.34-4.65,0.83-6.7
		c1.16-2.05,3.05-3.52,5.32-4.15C292.1,428.89,296.97,431.65,298.27,436.34z"/>
	<linearGradient id="SVGID_5_" gradientUnits="userSpaceOnUse" x1="274.7256" y1="334.4923" x2="336.5299" y2="334.4923">
		<stop  offset="0" style="stop-color:#ED1C24"/>
		<stop  offset="1" style="stop-color:#000000"/>
	</linearGradient>
	<path style="fill:url(#SVGID_5_);" d="M336.53,332.29c0.01,5.34-1.37,10.58-4.03,15.27c-8.41,14.82-27.3,20.03-42.12,11.63
		c-7.17-4.08-12.33-10.7-14.53-18.66c-2.19-7.95-1.16-16.28,2.91-23.46c2.66-4.69,6.46-8.56,11.05-11.29L336.53,332.29z"/>
	<linearGradient id="SVGID_6_" gradientUnits="userSpaceOnUse" x1="102.3759" y1="424.3454" x2="337.3979" y2="288.6554">
		<stop  offset="0" style="stop-color:#000000"/>
		<stop  offset="0.1036" style="stop-color:#6F6F6F;stop-opacity:0.5712"/>
		<stop  offset="0.2386" style="stop-color:#FCFCFC;stop-opacity:0.012"/>
		<stop  offset="0.7746" style="stop-color:#FFFFFF;stop-opacity:0"/>
		<stop  offset="1" style="stop-color:#1C1C1C;stop-opacity:0.8884"/>
	</linearGradient>
	<path style="fill:url(#SVGID_6_);" d="M368.67,402.09c-2.98-0.88-6.15-0.93-9.22-0.09c-4.33,1.2-7.94,4.01-10.15,7.92
		c-0.23,0.4-0.43,0.81-0.63,1.23c-0.37-0.26-0.76-0.51-1.16-0.74c-3.91-2.22-8.45-2.78-12.78-1.59c-4.95,1.37-8.76,4.83-10.77,9.15
		c-0.38-0.26-0.77-0.51-1.17-0.74c-3.91-2.22-8.45-2.78-12.78-1.58c-4.33,1.19-7.94,4-10.16,7.91c-0.23,0.4-0.43,0.82-0.62,1.24
		c-3.95-2.69-8.99-3.7-13.94-2.33c-4.34,1.19-7.94,4-10.16,7.91s-2.78,8.45-1.59,12.78l0.3,1.08c-6.08-5.19-13.46-8.73-21.36-10.22
		c3.36-2.62,6.21-5.91,8.38-9.73c4.35-7.66,5.45-16.54,3.11-25.02c-0.59-2.13-2.8-3.38-4.92-2.79c-2.13,0.58-3.38,2.79-2.79,4.92
		c1.77,6.42,0.93,13.14-2.36,18.94c-3.28,5.79-8.63,9.96-15.05,11.73c-0.37,0.1-0.74,0.2-1.11,0.28
		c-7.51,1.71-15.01-0.45-20.58-5.93c-5.71-5.62-8.14-13.62-6.5-21.41c3.8-18.04-1.63-36.66-14.52-49.83
		c-1.55-1.58-4.08-1.61-5.66-0.06c-1.58,1.54-1.6,4.08-0.06,5.65c11.02,11.26,15.66,27.18,12.41,42.59
		c-2.2,10.47,1.05,21.22,8.72,28.76c3.08,3.03,6.68,5.31,10.55,6.8c-0.81,0.44-1.61,0.91-2.4,1.4l-17.99,11.33
		c-18.83,11.87-41.52,14.06-62.27,6.02c-20.75-8.03-36.04-24.94-41.94-46.33c0,0-0.31-1.14-0.42-1.59
		c-9.02-33.59-4.54-68.92,12.62-99.47c16.26-28.95,42.1-50.41,73.15-60.9v35.51c-3.46-1.39-6.63-3.48-9.32-6.22
		c-1.55-1.57-4.08-1.59-5.66-0.04c-1.57,1.55-1.59,4.08-0.04,5.65c6.94,7.05,16.13,10.59,25.32,10.59c9,0,18.02-3.4,24.93-10.2
		c10.81-10.66,28.28-10.52,38.93,0.29c1.55,1.58,4.08,1.6,5.66,0.05c1.57-1.56,1.59-4.09,0.04-5.66c-4.32-4.39-9.51-7.41-15.03-9.07
		v-25.76c33.71,6.13,63.91,25.39,83.93,53.55c-0.28,0.75-0.34,1.6-0.11,2.43c0.59,2.13,2.79,3.38,4.92,2.8
		c5.8-1.6,11.82,1.81,13.42,7.61c0.77,2.81,0.41,5.75-1.03,8.28c-1.44,2.54-3.77,4.36-6.58,5.14c-0.55,0.15-1.53,0.3-2.67,0.48
		l-47.74-27.09c-1.16-0.66-2.58-0.7-3.78-0.09c-6.83,3.46-12.45,8.81-16.24,15.49c-5.12,9.04-6.42,19.53-3.66,29.54
		c2.76,10.02,9.26,18.36,18.3,23.48c5.93,3.37,12.49,5.09,19.13,5.09c3.47,0,6.97-0.47,10.41-1.42c10.01-2.76,18.35-9.26,23.48-18.3
		c3.4-5.99,5.12-12.69,5.05-19.52c1.39-0.4,2.7-0.96,3.94-1.64c0.5,1.4,0.99,2.83,1.47,4.33c1.52,4.78,5.71,8.1,10.67,8.48
		c1.75,0.13,3.24,1.35,3.7,3.04c0.12,0.43,0.17,0.91,0.14,1.39l-0.31,4.78C363.01,369.12,364.54,385.83,368.67,402.09z
		 M358.87,355.21c1.09-1.92,0.41-4.36-1.51-5.45c-1.92-1.08-4.36-0.41-5.45,1.51c-0.3,0.53-7.31,13.15-3.04,28.63
		c0.49,1.77,2.1,2.93,3.85,2.93c0.35,0,0.71-0.04,1.07-0.14c2.13-0.59,3.38-2.79,2.79-4.92
		C353.23,365.62,358.78,355.39,358.87,355.21z"/>
	<linearGradient id="SVGID_7_" gradientUnits="userSpaceOnUse" x1="178.3177" y1="160.961" x2="240.3755" y2="268.4483">
		<stop  offset="0" style="stop-color:#FCEE21"/>
		<stop  offset="0.2166" style="stop-color:#F9EC21"/>
		<stop  offset="0.3526" style="stop-color:#F1E320"/>
		<stop  offset="0.4666" style="stop-color:#E2D61E"/>
		<stop  offset="0.5683" style="stop-color:#CDC21B"/>
		<stop  offset="0.6618" style="stop-color:#B3A917"/>
		<stop  offset="0.7494" style="stop-color:#928913"/>
		<stop  offset="0.8324" style="stop-color:#6A640E"/>
		<stop  offset="0.9117" style="stop-color:#3D3908"/>
		<stop  offset="0.9855" style="stop-color:#0B0A01"/>
		<stop  offset="1" style="stop-color:#000000"/>
	</linearGradient>
	<path style="fill:url(#SVGID_7_);" d="M181.1,174.33c-1.05-1.91-1-4.25-0.03-6.21l3.82-7.78c2.72-5.55,8.36-9.06,14.54-9.06h24.06
		c8.94,0,16.19,7.25,16.19,16.2v101.37c-9.75-0.63-19.72,2.73-27.22,10.12c-5.24,5.16-12.2,7.95-19.52,7.91
		c-0.7,0-1.4-0.04-2.09-0.1V176.34c0-2.09-1.53-3.96-3.61-4.16c-2.38-0.23-4.39,1.65-4.39,3.98v0.24
		C182.15,175.86,181.55,175.17,181.1,174.33z M233.54,248.28v-76.27c0-2.21-1.79-4-4-4c-2.21,0-4,1.79-4,4v76.27
		c0,2.42-1.97,4.38-4.38,4.38c-2.42,0-4.39-1.96-4.39-4.38v-36.77c0-2.21-1.79-4-4-4c-2.21,0-4,1.79-4,4v36.77
		c0,6.83,5.56,12.38,12.39,12.38C227.98,260.66,233.54,255.11,233.54,248.28z"/>
	<linearGradient id="SVGID_8_" gradientUnits="userSpaceOnUse" x1="208.1854" y1="116.5419" x2="223.948" y2="89.2403">
		<stop  offset="0" style="stop-color:#FCA221"/>
		<stop  offset="0.2511" style="stop-color:#FC9F21"/>
		<stop  offset="0.4089" style="stop-color:#FB9722"/>
		<stop  offset="0.5409" style="stop-color:#F98823"/>
		<stop  offset="0.6588" style="stop-color:#F77324"/>
		<stop  offset="0.7672" style="stop-color:#F35926"/>
		<stop  offset="0.8687" style="stop-color:#F03829"/>
		<stop  offset="0.963" style="stop-color:#EB112C"/>
		<stop  offset="1" style="stop-color:#E9002D"/>
	</linearGradient>
	<path style="fill:url(#SVGID_8_);" d="M225.29,94.25c2.67,2.67,4.15,6.23,4.15,10.02c0,3.78-1.48,7.34-4.15,10.02
		c-2.68,2.67-6.24,4.15-10.02,4.15s-7.34-1.48-10.02-4.16c-5.52-5.52-5.52-14.51,0-20.03l10.02-10.02L225.29,94.25z"/>
	<path d="M387.26,439.54l-10.03-36.38c-4.53-16.4-6.25-33.31-5.12-50.26l0.31-4.82c0.08-1.39-0.06-2.74-0.42-4.02
		c-1.35-4.92-5.69-8.49-10.8-8.88c-1.7-0.13-3.13-1.28-3.66-2.94c-0.88-2.72-1.76-5.24-2.69-7.65c0.33-0.47,0.64-0.95,0.92-1.45
		c2.49-4.39,3.13-9.49,1.78-14.36c-2.32-8.42-10.03-13.92-18.38-13.86c-21.49-31.07-54.56-52.22-91.49-58.53v-6.52
		c5.11-0.39,9.67-2.96,12.67-7.19c3.27-4.62,4.07-10.32,2.2-15.65c0,0-10.33-29.4-13.91-39.61c-0.68-1.93-1.2-3.91-1.7-5.9
		c-2.66-10.47-12.17-18.24-23.45-18.24h-4.22v-17.23c4.28-0.78,8.36-2.81,11.67-6.11c4.19-4.18,6.5-9.75,6.5-15.67
		c0-5.92-2.31-11.49-6.49-15.68L218.1,75.74c-0.75-0.75-1.77-1.17-2.83-1.17s-2.08,0.42-2.83,1.17l-12.85,12.85
		c-8.64,8.64-8.64,22.71,0,31.35c3.31,3.3,7.4,5.33,11.68,6.11v17.23h-11.84c-9.16,0-17.68,5.31-21.72,13.53l-3.75,7.63
		c-2.17,4.43-2.2,9.69,0.25,13.97c1.93,3.38,5.04,5.77,8.64,6.79v55.75c-34.07,10.8-62.44,33.93-80.12,65.41
		c-18.19,32.38-22.94,69.84-13.39,105.42c0.12,0.47,0.44,1.63,0.44,1.63c6.59,23.91,23.64,42.76,46.77,51.72
		c23.13,8.97,48.44,6.52,69.43-6.71l17.99-11.33c3.17-2,6.59-3.52,10.16-4.5c20.03-5.53,40.85,6.31,46.4,26.41
		c0.49,1.77,2.1,2.93,3.85,2.93c0.35,0,0.71-0.04,1.07-0.14l99.02-27.33C386.6,443.87,387.85,441.67,387.26,439.54z M247.68,188.84
		l7.32,20.84c1,2.85,0.57,5.9-1.18,8.37c-1.48,2.09-3.67,3.41-6.14,3.77V188.84z M205.25,114.28c-5.52-5.52-5.52-14.51,0-20.03
		l10.02-10.02l10.02,10.02c2.67,2.67,4.15,6.23,4.15,10.02c0,3.78-1.48,7.34-4.15,10.02c-2.68,2.67-6.24,4.15-10.02,4.15
		C211.49,118.44,207.93,116.96,205.25,114.28z M181.1,174.33c-1.05-1.91-1-4.25-0.03-6.21l3.82-7.78c2.72-5.55,8.36-9.06,14.54-9.06
		h24.06c8.94,0,16.19,7.25,16.19,16.2v101.37c-9.75-0.63-19.72,2.73-27.22,10.12c-5.24,5.16-12.2,7.95-19.52,7.91
		c-0.7,0-1.4-0.04-2.09-0.1V176.34c0-2.09-1.53-3.96-3.61-4.16c-2.38-0.23-4.39,1.65-4.39,3.98v0.24
		C182.15,175.86,181.55,175.17,181.1,174.33z M275.13,430.38c-2.22,3.91-2.78,8.45-1.59,12.78l0.3,1.08
		c-6.08-5.19-13.46-8.73-21.36-10.22c3.36-2.62,6.21-5.91,8.38-9.73c4.35-7.66,5.45-16.54,3.11-25.02c-0.59-2.13-2.8-3.38-4.92-2.79
		c-2.13,0.58-3.38,2.79-2.79,4.92c1.77,6.42,0.93,13.14-2.36,18.94c-3.28,5.79-8.63,9.96-15.05,11.73c-0.37,0.1-0.74,0.2-1.11,0.28
		c-7.51,1.71-15.01-0.45-20.58-5.93c-5.71-5.62-8.14-13.62-6.5-21.41c3.8-18.04-1.63-36.66-14.52-49.83
		c-1.55-1.58-4.08-1.61-5.66-0.06c-1.58,1.54-1.6,4.08-0.06,5.65c11.02,11.26,15.66,27.18,12.41,42.59
		c-2.2,10.47,1.05,21.22,8.72,28.76c3.08,3.03,6.68,5.31,10.55,6.8c-0.81,0.44-1.61,0.91-2.4,1.4l-17.99,11.33
		c-18.83,11.87-41.52,14.06-62.27,6.02c-20.75-8.03-36.04-24.94-41.94-46.33c0,0-0.31-1.14-0.42-1.59
		c-9.02-33.59-4.54-68.92,12.62-99.47c16.26-28.95,42.1-50.41,73.15-60.9v35.51c-3.46-1.39-6.63-3.48-9.32-6.22
		c-1.55-1.57-4.08-1.59-5.66-0.04c-1.57,1.55-1.59,4.08-0.04,5.65c6.94,7.05,16.13,10.59,25.32,10.59c9,0,18.02-3.4,24.93-10.2
		c10.81-10.66,28.28-10.52,38.93,0.29c1.55,1.58,4.08,1.6,5.66,0.05c1.57-1.56,1.59-4.09,0.04-5.66c-4.32-4.39-9.51-7.41-15.03-9.07
		v-25.76c33.71,6.13,63.91,25.39,83.93,53.55c-0.28,0.75-0.34,1.6-0.11,2.43c0.59,2.13,2.79,3.38,4.92,2.8
		c5.8-1.6,11.82,1.81,13.42,7.61c0.77,2.81,0.41,5.75-1.03,8.28c-1.44,2.54-3.77,4.36-6.58,5.14c-0.55,0.15-1.53,0.3-2.67,0.48
		l-47.74-27.09c-1.16-0.66-2.58-0.7-3.78-0.09c-6.83,3.46-12.45,8.81-16.24,15.49c-5.12,9.04-6.42,19.53-3.66,29.54
		c2.76,10.02,9.26,18.36,18.3,23.48c5.93,3.37,12.49,5.09,19.13,5.09c3.47,0,6.97-0.47,10.41-1.42c10.01-2.76,18.35-9.26,23.48-18.3
		c3.4-5.99,5.12-12.69,5.05-19.52c1.39-0.4,2.7-0.96,3.94-1.64c0.5,1.4,0.99,2.83,1.47,4.33c1.52,4.78,5.71,8.1,10.67,8.48
		c1.75,0.13,3.24,1.35,3.7,3.04c0.12,0.43,0.17,0.91,0.14,1.39l-0.31,4.78c-1.11,16.75,0.42,33.46,4.55,49.72
		c-2.98-0.88-6.15-0.93-9.22-0.09c-4.33,1.2-7.94,4.01-10.15,7.92c-0.23,0.4-0.43,0.81-0.63,1.23c-0.37-0.26-0.76-0.51-1.16-0.74
		c-3.91-2.22-8.45-2.78-12.78-1.59c-4.95,1.37-8.76,4.83-10.77,9.15c-0.38-0.26-0.77-0.51-1.17-0.74
		c-3.91-2.22-8.45-2.78-12.78-1.58c-4.33,1.19-7.94,4-10.16,7.91c-0.23,0.4-0.43,0.82-0.62,1.24c-3.95-2.69-8.99-3.7-13.94-2.33
		C280.95,423.66,277.35,426.47,275.13,430.38z M336.53,332.29c0.01,5.34-1.37,10.58-4.03,15.27c-8.41,14.82-27.3,20.03-42.12,11.63
		c-7.17-4.08-12.33-10.7-14.53-18.66c-2.19-7.95-1.16-16.28,2.91-23.46c2.66-4.69,6.46-8.56,11.05-11.29L336.53,332.29z
		 M287.31,462.97l-6.05-21.94c-0.63-2.27-0.34-4.65,0.83-6.7c1.16-2.05,3.05-3.52,5.32-4.15c4.69-1.29,9.56,1.47,10.86,6.16
		l6.05,21.94L287.31,462.97z M312.03,456.15l-6.05-21.94c-1.3-4.69,1.47-9.56,6.16-10.85c4.68-1.3,9.55,1.47,10.85,6.16l6.05,21.94
		L312.03,456.15z M336.76,449.33l-6.06-21.94c-1.29-4.69,1.47-9.56,6.16-10.85c4.69-1.3,9.56,1.46,10.85,6.15l6.06,21.94
		L336.76,449.33z M361.48,442.51l-6.06-21.94c-0.62-2.28-0.33-4.66,0.83-6.71c1.17-2.05,3.06-3.52,5.33-4.15
		c2.27-0.62,4.65-0.33,6.7,0.84c2.05,1.16,3.53,3.05,4.15,5.32l1.47,5.33l4.59,16.61L361.48,442.51z"/>
	<path d="M357.36,349.76c1.92,1.09,2.6,3.53,1.51,5.45c-0.09,0.18-5.64,10.41-2.29,22.56c0.59,2.13-0.66,4.33-2.79,4.92
		c-0.36,0.1-0.72,0.14-1.07,0.14c-1.75,0-3.36-1.16-3.85-2.93c-4.27-15.48,2.74-28.1,3.04-28.63
		C353,349.35,355.44,348.68,357.36,349.76z"/>
	<path d="M316.01,84.53c0.39,2.18-1.07,4.25-3.24,4.64l-56.18,9.9c-0.23,0.04-0.46,0.06-0.69,0.06c-1.91,0-3.6-1.36-3.94-3.3
		c-0.38-2.18,1.07-4.25,3.25-4.64l56.17-9.9C313.55,80.91,315.63,82.36,316.01,84.53z"/>
	<path d="M302.4,147.98c1.91,1.11,2.57,3.55,1.46,5.47c-0.74,1.28-2.08,2-3.47,2c-0.68,0-1.36-0.18-1.99-0.54L249,126.39
		c-1.91-1.1-2.57-3.55-1.46-5.46c1.1-1.92,3.55-2.57,5.46-1.47L302.4,147.98z"/>
	<path d="M281.02,23.93c1.7,1.42,1.92,3.95,0.5,5.64l-36.67,43.7c-0.79,0.94-1.92,1.42-3.06,1.42c-0.91,0-1.82-0.3-2.57-0.93
		c-1.69-1.42-1.92-3.94-0.49-5.64l36.66-43.69C276.81,22.73,279.33,22.51,281.02,23.93z"/>
	<path d="M219.27,4v57.04c0,2.21-1.79,4-4,4c-2.21,0-4-1.79-4-4V4c0-2.21,1.79-4,4-4C217.48,0,219.27,1.79,219.27,4z"/>
	<path d="M191.81,68.12c1.42,1.7,1.2,4.22-0.49,5.64c-0.75,0.63-1.66,0.93-2.57,0.93c-1.14,0-2.27-0.48-3.06-1.42l-36.67-43.7
		c-1.42-1.69-1.2-4.22,0.5-5.64c1.69-1.42,4.21-1.19,5.63,0.5L191.81,68.12z"/>
	<path d="M183,120.93c1.11,1.91,0.45,4.36-1.46,5.46l-49.4,28.52c-0.63,0.36-1.31,0.54-1.99,0.54c-1.39,0-2.73-0.72-3.47-2
		c-1.11-1.92-0.45-4.36,1.46-5.47l49.4-28.52C179.45,118.36,181.9,119.01,183,120.93z"/>
	<path d="M175.33,91.19c2.18,0.39,3.63,2.46,3.25,4.64c-0.34,1.94-2.03,3.3-3.93,3.3c-0.24,0-0.47-0.02-0.7-0.06l-56.18-9.9
		c-2.17-0.39-3.63-2.46-3.24-4.64c0.38-2.17,2.46-3.62,4.63-3.24L175.33,91.19z"/>
	<linearGradient id="SVGID_9_" gradientUnits="userSpaceOnUse" x1="210.9903" y1="247.479" x2="231.3242" y2="212.2596">
		<stop  offset="0" style="stop-color:#000000"/>
		<stop  offset="0.2077" style="stop-color:#3A3608;stop-opacity:0.7923"/>
		<stop  offset="0.5999" style="stop-color:#A19815;stop-opacity:0.4001"/>
		<stop  offset="0.8724" style="stop-color:#E3D61E;stop-opacity:0.1276"/>
		<stop  offset="1" style="stop-color:#FCEE21;stop-opacity:0"/>
	</linearGradient>
	<path style="fill:url(#SVGID_9_);" d="M225.54,208.92v39.37c0,2.42-1.97,4.38-4.38,4.38c-2.42,0-4.39-1.96-4.39-4.38v-36.77
		c0-0.35-0.05-0.69-0.13-1.01L225.54,208.92z"/>
	<path d="M233.54,172.01v76.27c0,6.83-5.56,12.38-12.38,12.38c-6.83,0-12.39-5.55-12.39-12.38v-36.77c0-2.21,1.79-4,4-4
		c1.86,0,3.42,1.27,3.87,2.99c0.08,0.32,0.13,0.66,0.13,1.01v36.77c0,2.42,1.97,4.38,4.39,4.38c2.41,0,4.38-1.96,4.38-4.38v-76.27
		c0-2.21,1.79-4,4-4S233.54,169.8,233.54,172.01z"/>
	<linearGradient id="SVGID_10_" gradientUnits="userSpaceOnUse" x1="240.5395" y1="192.9625" x2="255.1466" y2="218.2628">
		<stop  offset="0" style="stop-color:#FCEE21"/>
		<stop  offset="0.2166" style="stop-color:#F9EC21"/>
		<stop  offset="0.3526" style="stop-color:#F1E320"/>
		<stop  offset="0.4666" style="stop-color:#E2D61E"/>
		<stop  offset="0.5683" style="stop-color:#CDC21B"/>
		<stop  offset="0.6618" style="stop-color:#B3A917"/>
		<stop  offset="0.7494" style="stop-color:#928913"/>
		<stop  offset="0.8324" style="stop-color:#6A640E"/>
		<stop  offset="0.9117" style="stop-color:#3D3908"/>
		<stop  offset="0.9855" style="stop-color:#0B0A01"/>
		<stop  offset="1" style="stop-color:#000000"/>
	</linearGradient>
	<path style="fill:url(#SVGID_10_);" d="M253.82,218.05c-1.48,2.09-3.67,3.41-6.14,3.77v-32.98l7.32,20.84
		C256,212.53,255.57,215.58,253.82,218.05z"/>
</g>
<g>
</g>
<g>
</g>
<g>
</g>
<g>
</g>
<g>
</g>
<g>
</g>
<g>
</g>
<g>
</g>
<g>
</g>
<g>
</g>
<g>
</g>
<g>
</g>
<g>
</g>
<g>
</g>
<g>
</g>
</svg>
